HIERARCHY
ROOT Hips
{
	OFFSET -14.64140 90.27770 -84.91600
	CHANNELS 6 Xposition Yposition Zposition Zrotation Xrotation Yrotation
	JOINT Spine
	{
		OFFSET 0.00000 13.20850 -1.60436
		CHANNELS 3 Zrotation Xrotation Yrotation
		JOINT Spine1
		{
			OFFSET 0.00000 8.61716 0.00000
			CHANNELS 3 Zrotation Xrotation Yrotation
			JOINT Spine2
			{
				OFFSET 0.00000 8.61717 0.00000
				CHANNELS 3 Zrotation Xrotation Yrotation
				JOINT Spine3
				{
					OFFSET 0.00000 8.61717 0.00000
					CHANNELS 3 Zrotation Xrotation Yrotation
					JOINT Neck
					{
						OFFSET 0.00000 11.07920 1.10792
						CHANNELS 3 Zrotation Xrotation Yrotation
						JOINT Neck1
						{
							OFFSET 0.00000 7.08032 0.00000
							CHANNELS 3 Zrotation Xrotation Yrotation
							JOINT Head
							{
								OFFSET 0.00000 7.08031 0.00000
								CHANNELS 3 Zrotation Xrotation Yrotation
								End site
								{
									OFFSET 0.00000 0.00000 0.00000
								}
							}
						}
					}
					JOINT RightShoulder
					{
						OFFSET -0.01000 7.91373 5.19711
						CHANNELS 3 Zrotation Xrotation Yrotation
						JOINT RightArm
						{
							OFFSET -18.41580 0.00000 0.00000
							CHANNELS 3 Zrotation Xrotation Yrotation
							JOINT RightForeArm
							{
								OFFSET -29.11090 0.00000 0.00000
								CHANNELS 3 Zrotation Xrotation Yrotation
								JOINT RightHand
								{
									OFFSET -24.65040 0.00000 0.00000
									CHANNELS 3 Zrotation Xrotation Yrotation
									JOINT RightHandThumb1
									{
										OFFSET -5.35114 -0.85590 3.97906
										CHANNELS 3 Zrotation Xrotation Yrotation
										JOINT RightHandThumb2
										{
											OFFSET -4.52789 0.00000 0.00000
											CHANNELS 3 Zrotation Xrotation Yrotation
											JOINT RightHandThumb3
											{
												OFFSET -2.46976 0.00000 0.00000
												CHANNELS 3 Zrotation Xrotation Yrotation
												End site
												{
													OFFSET 0.00000 0.00000 0.00000
												}
											}
										}
									}
									JOINT RightHandIndex1
									{
										OFFSET -14.26970 0.00000 2.88139
										CHANNELS 3 Zrotation Xrotation Yrotation
										JOINT RightHandIndex2
										{
											OFFSET -5.48836 0.00000 0.00000
											CHANNELS 3 Zrotation Xrotation Yrotation
											JOINT RightHandIndex3
											{
												OFFSET -3.01859 0.00000 0.00000
												CHANNELS 3 Zrotation Xrotation Yrotation
												End site
												{
													OFFSET 0.00000 0.00000 0.00000
												}
											}
										}
									}
									JOINT RightHandMiddle1
									{
										OFFSET -14.26970 0.00000 -0.09147
										CHANNELS 3 Zrotation Xrotation Yrotation
										JOINT RightHandMiddle2
										{
											OFFSET -6.17441 0.00000 0.00000
											CHANNELS 3 Zrotation Xrotation Yrotation
											JOINT RightHandMiddle3
											{
												OFFSET -3.56743 0.00000 0.00000
												CHANNELS 3 Zrotation Xrotation Yrotation
												End site
												{
													OFFSET 0.00000 0.00000 0.00000
												}
											}
										}
									}
									JOINT RightHandRing1
									{
										OFFSET -12.69180 0.00000 -3.06433
										CHANNELS 3 Zrotation Xrotation Yrotation
										JOINT RightHandRing2
										{
											OFFSET -5.62556 0.00000 0.00000
											CHANNELS 3 Zrotation Xrotation Yrotation
											JOINT RightHandRing3
											{
												OFFSET -3.56744 0.00000 0.00000
												CHANNELS 3 Zrotation Xrotation Yrotation
												End site
												{
													OFFSET 0.00000 0.00000 0.00000
												}
											}
										}
									}
									JOINT RightHandPinky1
									{
										OFFSET -11.11390 0.00000 -6.03719
										CHANNELS 3 Zrotation Xrotation Yrotation
										JOINT RightHandPinky2
										{
											OFFSET -4.52789 0.00000 0.00000
											CHANNELS 3 Zrotation Xrotation Yrotation
											JOINT RightHandPinky3
											{
												OFFSET -2.46976 0.00000 0.00000
												CHANNELS 3 Zrotation Xrotation Yrotation
												End site
												{
													OFFSET 0.00000 0.00000 0.00000
												}
											}
										}
									}
								}
							}
						}
					}
					JOINT LeftShoulder
					{
						OFFSET 0.01000 7.91373 5.19711
						CHANNELS 3 Zrotation Xrotation Yrotation
						JOINT LeftArm
						{
							OFFSET 18.41580 0.00000 0.00000
							CHANNELS 3 Zrotation Xrotation Yrotation
							JOINT LeftForeArm
							{
								OFFSET 29.11090 0.00000 0.00000
								CHANNELS 3 Zrotation Xrotation Yrotation
								JOINT LeftHand
								{
									OFFSET 24.65040 0.00000 0.00000
									CHANNELS 3 Zrotation Xrotation Yrotation
									JOINT LeftHandThumb1
									{
										OFFSET 5.35114 -0.85590 3.97906
										CHANNELS 3 Zrotation Xrotation Yrotation
										JOINT LeftHandThumb2
										{
											OFFSET 4.52789 0.00000 0.00000
											CHANNELS 3 Zrotation Xrotation Yrotation
											JOINT LeftHandThumb3
											{
												OFFSET 2.46977 0.00000 0.00000
												CHANNELS 3 Zrotation Xrotation Yrotation
												End site
												{
													OFFSET 0.00000 0.00000 0.00000
												}
											}
										}
									}
									JOINT LeftHandIndex1
									{
										OFFSET 14.26970 0.00000 2.88139
										CHANNELS 3 Zrotation Xrotation Yrotation
										JOINT LeftHandIndex2
										{
											OFFSET 5.48836 0.00000 0.00000
											CHANNELS 3 Zrotation Xrotation Yrotation
											JOINT LeftHandIndex3
											{
												OFFSET 3.01859 0.00000 0.00000
												CHANNELS 3 Zrotation Xrotation Yrotation
												End site
												{
													OFFSET 0.00000 0.00000 0.00000
												}
											}
										}
									}
									JOINT LeftHandMiddle1
									{
										OFFSET 14.26970 0.00000 -0.09147
										CHANNELS 3 Zrotation Xrotation Yrotation
										JOINT LeftHandMiddle2
										{
											OFFSET 6.17440 0.00000 0.00000
											CHANNELS 3 Zrotation Xrotation Yrotation
											JOINT LeftHandMiddle3
											{
												OFFSET 3.56744 0.00000 0.00000
												CHANNELS 3 Zrotation Xrotation Yrotation
												End site
												{
													OFFSET 0.00000 0.00000 0.00000
												}
											}
										}
									}
									JOINT LeftHandRing1
									{
										OFFSET 12.69180 0.00000 -3.06433
										CHANNELS 3 Zrotation Xrotation Yrotation
										JOINT LeftHandRing2
										{
											OFFSET 5.62556 0.00000 0.00000
											CHANNELS 3 Zrotation Xrotation Yrotation
											JOINT LeftHandRing3
											{
												OFFSET 3.56744 0.00000 0.00000
												CHANNELS 3 Zrotation Xrotation Yrotation
												End site
												{
													OFFSET 0.00000 0.00000 0.00000
												}
											}
										}
									}
									JOINT LeftHandPinky1
									{
										OFFSET 11.11390 0.00000 -6.03719
										CHANNELS 3 Zrotation Xrotation Yrotation
										JOINT LeftHandPinky2
										{
											OFFSET 4.52789 0.00000 0.00000
											CHANNELS 3 Zrotation Xrotation Yrotation
											JOINT LeftHandPinky3
											{
												OFFSET 2.46976 0.00000 0.00000
												CHANNELS 3 Zrotation Xrotation Yrotation
												End site
												{
													OFFSET 0.00000 0.00000 0.00000
												}
											}
										}
									}
								}
							}
						}
					}
					JOINT pCube4
					{
						OFFSET 0.00000 10.91090 1.10792
						CHANNELS 3 Zrotation Xrotation Yrotation
						End site
						{
							OFFSET 0.00000 0.00000 0.00000
						}
					}
				}
			}
		}
	}
	JOINT RightUpLeg
	{
		OFFSET -9.98441 0.00000 0.00000
		CHANNELS 3 Zrotation Xrotation Yrotation
		JOINT RightLeg
		{
			OFFSET 0.00000 -42.11790 0.00000
			CHANNELS 3 Zrotation Xrotation Yrotation
			JOINT RightFoot
			{
				OFFSET 0.00000 -45.00020 -0.00001
				CHANNELS 3 Zrotation Xrotation Yrotation
				JOINT RightForeFoot
				{
					OFFSET 0.00000 -3.74820 0.00000
					CHANNELS 3 Zrotation Xrotation Yrotation
					JOINT RightToeBase
					{
						OFFSET 0.00000 0.06325 14.43120
						CHANNELS 3 Zrotation Xrotation Yrotation
						End site
						{
							OFFSET 0.00000 0.00000 0.00000
						}
					}
				}
			}
		}
	}
	JOINT LeftUpLeg
	{
		OFFSET 9.98441 0.00000 0.00000
		CHANNELS 3 Zrotation Xrotation Yrotation
		JOINT LeftLeg
		{
			OFFSET 0.00000 -42.11800 0.00000
			CHANNELS 3 Zrotation Xrotation Yrotation
			JOINT LeftFoot
			{
				OFFSET 0.00000 -45.00070 0.00000
				CHANNELS 3 Zrotation Xrotation Yrotation
				JOINT LeftForeFoot
				{
					OFFSET 0.00000 -3.74824 0.00000
					CHANNELS 3 Zrotation Xrotation Yrotation
					JOINT LeftToeBase
					{
						OFFSET 0.00000 0.06325 14.43110
						CHANNELS 3 Zrotation Xrotation Yrotation
						End site
						{
							OFFSET 0.00000 0.00000 0.00000
						}
					}
				}
			}
		}
	}
}
MOTION
Frames: 4
Frame Time: 0.050000
-0.031455311832014346 -0.010144397026218038 -0.004096117963172099 -0.02903073078094137 -0.006456573881671664 -0.020358699509582467 -2.808820870125553 0.44079818257070236 -0.8008267661390873 -0.971534086856829 3.4833011153880653 0.30535573202774446 -0.8600699538196895 -2.010688979762912 -2.576107063409635 -0.8320896712341834 0.27759254978323783 -0.9631021529285485 -2.2558612590318585 12.333843675652043 5.96861038183904 -0.11868959735367603 0.11940406394455294 13.479650554981488 -1.8826604019658333 -14.579843911749467 1.1829109329211631 -2.7742438575806805 1.4418920903163979 -13.480483375720038 69.90065482763708 28.82357858947943 0.28786409646867406 8.164375670368837 -0.9203526984369446 84.41944419636714 17.91054630335424 -0.47219372707284707 -3.9557796072552445 4.539735340741895 -0.1553783011931274 -1.5906198673392895 0.010087086578987697 0.021269616691944746 -56.26376695628033 0.023562680157353466 -0.04863143549871776 -56.26861145521264 -38.769542445661585 0.014374986058328253 -0.03336343294281986 -0.011881165418409488 0.00667167075094419 0.03611235560618049 -0.00662282958684991 -0.0032240047930073715 0.025664102536131574 -36.656894048934326 -0.0011581036717384253 -0.018585100295376068 0.029399070641942165 0.025158978814091803 -0.025516087515063422 -0.021539394328309404 0.02108353756603552 0.0360603529767109 -19.757787112673824 -0.024625697528539353 0.0016246492363515095 -0.04519648521997117 0.039630982744577124 -0.00222614830630539 -0.04490291262010051 0.04130245736052308 0.005080989153241311 24.09062065151825 -0.04408805469459499 -0.0470494632653495 28.909024615228176 0.012603039532226096 0.04202858138831552 28.856263451609554 -0.008504417776985783 -0.04399719293408069 9.850294934288769 2.046643939602998 12.350424364943972 -69.06005115715145 15.801970247747557 -23.047329567362866 -20.358247617031285 -12.299537214213968 -77.67539434866492 -5.998859433310957 -2.9489498893789756 0.17486172113279735 -0.4585986531890769 0.1030492673257993 -8.080326480988774 -0.034996906878038386 0.03611235222281254 44.58057879774029 0.026336760012299155 -0.015199578659969923 44.57382826830331 12.452801775051732 0.009094184627521406 -0.0018242648408036816 0.00771971082579757 0.012183026520407642 0.012380784242106434 0.04010726796058376 0.022691725766038263 -0.049504981356935214 11.058214806857073 -0.007995851643947963 -0.02514251271179953 -0.02749249584319323 -0.010543654944738717 -0.014718940651263297 -0.036199553188880365 -0.025622047045670074 -0.012381565222286405 4.750518283931138 0.03490805512217992 0.0184941432943783 0.0013118717197517745 -0.012119039391786112 -0.02992937489546588 -0.045018437862153635 0.048406833016852675 -0.03237355290386447 -5.580047701374094 -0.014297460880994735 -0.005043052014133169 -6.745481144454995 -0.04023124412005681 -0.005439326393587627 -6.767691409790142 -0.04304168251426946 0.013399194719933163 -0.008127315138827805 0.025567183947688463 0.01870590097246967 8.009804005755676 3.485879123671083 -19.19786835070635 -0.02414321587202172 10.380628778986326 -0.00022505260197421863 -5.637942093756004 -15.67996139235707 3.146245016412297 -0.0161374282549292 -0.03886162081473282 0.047969583250260114 -0.005919136290947425 4.659487617296115 -0.015487836070559494 12.417709686424637 -8.198264978368401 6.8696299025647924 0.006794164719044714 46.3393378199919 0.03860969496051643 -4.282549304736725 -14.72190846809402 -3.8354290925618892 -0.04106665754732945 -0.015397405955412518 -0.02932616547608679 -0.019700057101338302 -10.733357217814802 -0.04600530506533033 
-0.04469548987063365 -0.04610656891325917 0.01325605594526405 0.02981360686295056 -0.048860835779026474 -0.042199977269400515 -2.745912635406285 0.5349877362103811 -0.8425746546547486 -1.030787631693989 3.50173455683702 0.3259964502653355 -0.8959898624139043 -2.0103840886869326 -2.7560098561953055 -0.8262087837905633 0.25602822751625876 -1.0301202865126988 -2.290016143178132 12.270955179398145 5.880609804170769 -0.1265980378203325 0.12887017638519793 13.323675370712966 -1.9435793552362775 -14.577098459636055 1.1187119962618188 -2.807542477657061 1.4201441467474973 -13.362596837615438 69.7885356131937 28.39643000015279 0.736651776030573 8.957758008114114 -0.5347190474801694 83.40241984118398 18.092806596385948 -0.430287999767757 -4.034741533739733 4.4977297196194055 -0.12100763035157697 -1.585638824851366 -0.00697544531304197 0.043529145415479586 -56.2150856686458 -0.0019980660875844017 -0.049556291684249354 -56.20576079352952 -38.79267534489225 -0.034923412399485695 0.03780045310962036 -0.008280189514199865 0.032818922567114536 0.006665318325284423 -0.0019174878445384358 0.017333324137416638 -0.00207692860769061 -36.69146224708318 -0.049866213780475566 0.00998042195226529 -0.017298578024459513 0.034093300890281654 0.009046591044413873 0.03374962848545048 -0.024358478438706116 -0.0020389900161425743 -19.728314093829326 0.007443691908474959 -0.013838865152932905 0.028588515412927104 -0.00090347256821942 0.02910604606553446 0.04305891179566882 0.04012664655910263 0.04273310047632272 24.016417161914518 0.04739100554248886 -0.036282844884400686 28.876366832491826 0.04399685772305859 0.00344680659027707 28.906627596581693 0.025768998060094982 -0.01030638364958068 9.960947865554745 2.095494808096888 12.148296737307458 -68.28175616596084 15.544484807619458 -24.670368198527296 -17.232080357261108 -13.243617412867337 -76.92771644245738 -5.78868500486339 -2.8199116787844645 0.5259616902011608 -0.5005381638757551 0.08990963551732749 -8.077868445707688 0.04655720318139323 -0.008314222706022605 44.5887427218081 0.020484882390626413 -0.04058716199775323 44.5202162018808 12.504756568910064 -0.022248498965952795 0.044127915709834306 0.014108377130253315 0.01744888369527416 -0.0006998354859915088 -0.022189318125717176 0.02062083963656044 -0.0058169667565909815 11.117553360570975 0.042335264538537906 0.02443571194132052 -0.014382865364882662 -0.0008994595807336037 -0.04480101596491125 -0.02650133471281829 -0.0010922193020950358 0.0016741463751672684 4.760092745458158 0.029737144959924584 0.019279159481402887 -0.0009465052677109394 -0.0440824109045391 -0.005608066703391048 -0.047144563048666745 -0.004855768003625375 0.002535528424630831 -5.616188119006973 0.04725610113776803 -0.016851616920942482 -6.723276660824476 -0.014247338484516092 -0.025124879282047433 -6.690971737758866 0.018981461086995405 0.007222882389188664 -0.034875379132118516 0.017877988491610437 -0.03196944661521123 8.062263823115963 3.5399538690445036 -19.246326812909782 0.0439853885084811 10.391268547301324 0.05904089199350755 -5.636956391995135 -15.677412133814004 3.201024708317073 0.01897162547419091 0.03149005742344237 -0.014536351298161035 0.016838788707685178 4.708282253724559 0.001615550623559797 12.430998643771524 -8.259749865529862 6.906665781271647 0.019933773918467814 46.37825207281083 0.019326531649413378 -4.292977435429625 -14.757303400811129 -3.800154213986178 -0.010408828887797327 -0.03930139768019259 -0.004988502961394702 0.040814003343545506 -10.72890748660236 0.012314027209002265 
-0.036272532848424584 -0.04386281843798377 -0.003009828696459167 -0.04362462196943889 -0.04869933119454021 -0.04823265149328468 -2.716496702920796 0.600052417079613 -0.7985745406264485 -0.998996728393001 3.5000444746798767 0.33007844629137467 -0.8495647949959847 -1.9921288447359993 -2.8888689924109947 -0.687042379177816 0.3311127119420742 -1.015173454470843 -2.241535049714204 12.236387873160465 5.719087378763129 -0.1355354815443267 0.0943083104396581 13.034673482528676 -1.9318327905171677 -14.664658465050096 1.1365453726262518 -2.8188027819395796 1.4932845093063616 -13.206941868776212 69.6104817331027 28.001603590803725 1.4721338521249236 10.761870630248367 -0.12918310784118325 83.05322366011472 18.554986387513903 -0.3962127481453312 -4.343195755167944 4.498499148684588 -0.09932021515942255 -1.6309916211948539 0.01415199868173729 0.04617733605838367 -56.219647413340255 -0.004129414460028859 0.0072211823289589595 -56.245790037279825 -38.750358234317616 0.010231318191951477 0.02345194186767493 -0.0018248201723314156 -0.014907431606196286 -0.023399266940854993 -0.0467243695287534 0.008293996283824578 0.0020355368667251523 -36.673034449770626 -0.042229441107020566 0.04989221636208761 0.0011700428006422444 0.004968278851605854 0.03270766143443394 0.032166579732016205 -0.0012727583199512546 -0.025437341628630233 -19.74768541275849 -0.008983759918554773 0.019714308714567794 0.04406553306275754 -0.035183245470160024 0.021340139357843853 -0.0054465600834881925 -0.01378351345818157 -0.025458016262140667 24.007123210598703 0.018192881437683887 0.037342732951671516 28.907986429664394 -0.0135772140114274 -0.033192894879409136 28.877884105052065 0.046306844081061845 -0.040108524183489716 10.082987027432498 2.145453991215738 11.934768501167163 -67.27887874860619 15.338202765427614 -26.281060650013092 -15.605733399812516 -13.666375216022674 -75.88000042991563 -6.330437532830599 -2.802153394821875 1.1167966333217418 -0.4360856987275148 0.019956566033798237 -8.130871742852182 -0.038197445565663665 0.01629387009368996 44.52735728845082 -0.03022596974600762 -0.010669975395247139 44.54988707141971 12.41275913179145 -0.012082423675024411 0.006919303707529013 0.0022926427175071957 -0.04003398130978251 -0.03570719196170481 0.04408145872389398 -0.030411277997967272 -0.013584750758261087 11.10562896790633 0.038049753910395265 -0.024969043730210045 -0.00413113977320803 0.025146541308950537 -0.00273535695341212 0.04727314474501845 -0.03979587174897835 -0.04350545110905924 4.793546671983968 -0.017364078035327152 -0.02215581208010731 -0.04656827129698188 -0.022138161829139417 -0.01354055739307677 0.03951523226651916 0.011779312450595214 0.0030173061894691543 -5.650054575466974 -0.03866722427372747 0.042130443642072246 -6.675497633048881 -0.010307970384171545 -0.036872806195377375 -6.71516702087437 0.009814204392019977 0.04464171090047781 -0.010231281230546712 0.0013201480265489396 -0.018171629281441448 8.070430774933062 3.526036983356582 -19.243740080541667 0.04457189025916906 10.414228215024005 -0.01777156018966521 -5.6615368859382516 -15.634399719815185 3.217703475742173 -0.014079201766272918 -0.03639762081422768 -0.010364103802839626 0.030826446453619774 4.68985268491691 -0.015970640522508503 12.438842824775913 -8.274630146412804 6.894089531500038 0.025482586115446716 46.373307395031006 0.0011145826026671866 -4.287392717301283 -14.72159896180583 -3.8480431473078545 0.022507766487388555 -0.011179198214701333 -0.03990386700884424 0.021500234702843044 -10.776911218908442 0.017371698471601065 
0.006223085087171731 0.020859564198117866 -0.048496708097229724 0.011501293589273369 -0.006185356586272586 -0.02980034220816695 -2.6337377618510596 0.6484422548535193 -0.841322813956713 -0.9519035752041133 3.516861173748005 0.36523553402663284 -0.8587802036681021 -1.9547454446518844 -3.0260748011083094 -0.6592831126309375 0.3157915595275185 -1.0242918863195667 -2.2071145907772802 12.227812249422094 5.592173842652976 -0.19722651653331014 -0.010597256241286022 12.595259269476962 -1.8745604476581408 -14.795398833372388 1.0870878682655067 -2.9190420751971535 1.4504687415231696 -13.136972060106498 69.35199909577214 27.41782260181488 1.9701275237831013 11.879005426163943 0.08652937451463238 81.86009723942756 18.93904623949457 -0.43209979639209967 -4.4990992706803885 4.532189363846444 -0.11880071242530552 -1.5654966862130368 0.024183015427156992 -0.03681971397396677 -56.23783653246388 0.043810554489608224 -0.0227239185535299 -56.1963889205033 -38.796321767732955 -0.013368277041962204 -0.031593406639839894 0.023053229150367373 -0.029469026551424377 -0.02085457608702358 -0.015004960648166447 0.00013588318147595704 -0.03403139285185878 -36.70146041694525 0.019582486540955603 -0.015602314275059908 0.00813155206591433 -0.048455108542589206 -0.000830096432757323 -0.026770867420100715 -0.04022465816104144 0.04405524022340801 -19.773258068794707 0.026273031273796606 0.04325540500596869 0.022442357691889212 -0.025976573135525902 0.04025517628934098 -0.03450210785133498 0.00027283069841595924 -0.014273864005533966 24.05548913709815 -0.0164219123673861 0.010820435352051194 28.872756364419 -0.014945854249853854 0.025046569895992483 28.833906046881033 -0.04085595450055152 -0.028125977330129746 10.198074000045585 2.1693332116666735 11.721715584084112 -66.30270236315155 15.298986269138435 -27.35347595693259 -13.875083528545549 -14.190847585970022 -73.76814099361556 -6.792332137340299 -3.0462638355930194 1.8255968857443006 -0.5070110972348898 0.07958315267578048 -8.13160377738284 0.011452333173242972 -0.0020692030491910713 44.58813456496508 -0.030243743127910044 0.0442437333476649 44.56916907746095 12.496583467426438 0.033292777867931306 -0.021691431107437955 0.01015479773770186 -0.03333156798380643 0.0037406238597181094 -0.013745680507030197 0.027339154025350594 0.0171839962303136 11.134652781553608 0.03229088624622644 -0.018991482913533583 0.045285501343032525 0.02801922381410461 0.03503877893637491 0.02555959887057764 -0.0310292661793868 0.043644114377307065 4.743550572211251 0.020783457043137964 -0.03948992295297576 0.028774152024503924 0.03515788947479738 -0.004037261002046004 -0.036296987560478285 -0.03929574007063394 0.027575887808971605 -5.569100253473524 0.041855346907004966 0.03860289639476907 -6.743776494759827 -0.005622192149356014 0.01229367784078171 -6.681733804000485 0.0004080581307454984 -0.0019838244330443303 -0.01918972018558825 -0.029698175359100576 -0.0045634694705868235 8.002381615302571 3.4714670448254434 -19.267888128078752 0.035757110943625825 10.437235286684537 0.05514736727672004 -5.5992498949305345 -15.667147433111502 3.1508544483849237 -0.00687171139733052 0.033171800911890405 -0.02536069165790346 0.0019224089227797517 4.690601136367194 -0.017042935328838327 12.43635602387506 -8.233252427454577 6.873576251729627 0.025117726158018362 46.34691637302816 0.032292440728828614 -4.302181367146849 -14.765542578607606 -3.8233232816907634 0.04053978545082086 -0.03213163107418043 0.020969673736817913 0.04130422108145768 -10.752806751864444 0.0062382187070740905 
